<?xml version="1.0" standalone="no"?>
<!DOCTYPE svg PUBLIC "-//W3C//DTD SVG 20010904//EN"
 "http://www.w3.org/TR/2001/REC-SVG-20010904/DTD/svg10.dtd">
<svg version="1.0" xmlns="http://www.w3.org/2000/svg"
 width="1024.000000pt" height="1024.000000pt" viewBox="0 0 1024.000000 1024.000000"
 preserveAspectRatio="xMidYMid meet">

<g transform="translate(0.000000,1024.000000) scale(0.100000,-0.100000)"
fill="#000000" stroke="none">
<path d="M3685 10023 c-264 -6 -784 -34 -915 -48 -599 -67 -1109 -261 -1500
-573 -121 -96 -336 -312 -422 -422 -209 -270 -351 -556 -452 -908 -130 -449
-166 -971 -166 -2389 l0 -693 253 0 c226 0 346 -6 560 -26 l67 -7 0 737 c0
935 17 1476 56 1756 49 360 157 668 315 902 89 132 304 345 435 431 124 82
272 153 429 205 419 140 799 162 2795 162 2006 0 2385 -22 2805 -162 254 -85
450 -199 624 -364 225 -214 350 -412 449 -709 139 -418 162 -805 162 -2765 0
-1431 -14 -2021 -56 -2350 -46 -367 -150 -672 -311 -914 -83 -124 -255 -303
-386 -402 -123 -93 -317 -190 -497 -248 -390 -127 -794 -156 -2177 -156 l-773
0 0 -57 c0 -160 -47 -472 -104 -694 l-34 -132 957 6 c1526 9 1876 36 2353 181
438 133 774 332 1083 641 334 334 545 709 675 1200 131 495 155 998 147 3150
-6 1725 -19 2021 -108 2457 -114 563 -342 1001 -714 1373 -317 317 -644 509
-1110 650 -292 88 -571 127 -1140 156 -192 10 -2964 21 -3300 12z"/>
<path d="M7673 8320 c-180 -33 -350 -161 -427 -323 -43 -91 -59 -160 -59 -257
0 -153 54 -288 157 -398 120 -127 259 -187 431 -186 127 2 229 33 330 102 282
194 337 581 121 854 -122 154 -358 242 -553 208z"/>
<path d="M4990 7634 c-654 -49 -1213 -309 -1660 -771 -439 -454 -675 -1011
-706 -1664 l-7 -146 209 -6 c223 -6 386 -27 563 -72 55 -14 103 -25 108 -25 4
0 8 80 9 178 1 264 44 456 154 690 391 824 1391 1173 2205 770 526 -261 868
-765 915 -1351 39 -478 -137 -945 -485 -1292 -128 -127 -255 -218 -420 -300
-235 -116 -422 -163 -693 -172 l-163 -6 5 -26 c26 -128 31 -187 31 -361 -1
-193 -12 -287 -49 -427 l-14 -52 55 -7 c70 -8 295 3 438 22 398 54 775 202
1103 431 583 408 955 1020 1058 1738 24 165 24 485 0 658 -64 467 -263 921
-563 1284 -400 484 -984 806 -1606 888 -121 15 -389 26 -487 19z"/>
</g>
</svg>
