<?xml version="1.0" standalone="no"?>
<!DOCTYPE svg PUBLIC "-//W3C//DTD SVG 20010904//EN"
 "http://www.w3.org/TR/2001/REC-SVG-20010904/DTD/svg10.dtd">
<svg version="1.0" xmlns="http://www.w3.org/2000/svg"
 width="727.000000pt" height="743.000000pt" viewBox="0 0 727.000000 743.000000"
 preserveAspectRatio="xMidYMid meet">

<g transform="translate(0.000000,743.000000) scale(0.100000,-0.100000)"
fill="#000000" stroke="none">
<path d="M2080 6598 c1 -564 5 -619 58 -733 42 -88 100 -148 186 -190 92 -46
186 -65 316 -65 186 0 324 46 415 137 56 56 90 121 116 221 18 70 19 114 19
609 l0 533 -150 0 -149 0 -3 -517 -3 -518 -28 -58 c-22 -44 -39 -63 -75 -85
-42 -24 -56 -27 -142 -27 -83 0 -101 3 -140 25 -49 28 -84 73 -100 129 -6 22
-10 234 -10 544 l0 507 -155 0 -155 0 0 -512z"/>
<path d="M3410 6360 l0 -750 155 0 155 0 2 436 3 437 256 -434 256 -434 147
-3 146 -3 0 751 0 750 -155 0 -155 0 0 -432 c-1 -343 -3 -430 -13 -417 -7 9
-122 203 -257 432 l-245 417 -147 0 -148 0 0 -750z"/>
<path d="M4750 6360 l0 -750 150 0 150 0 0 750 0 750 -150 0 -150 0 0 -750z"/>
<path d="M2030 4665 l0 -755 150 0 150 0 0 305 0 305 295 0 295 0 0 145 0 145
-295 0 -296 0 3 158 3 157 323 3 322 2 0 145 0 145 -475 0 -475 0 0 -755z"/>
<path d="M3572 5410 c-198 -28 -318 -103 -379 -237 -35 -75 -49 -186 -36 -273
34 -215 169 -327 453 -375 166 -28 240 -80 240 -170 0 -82 -66 -137 -180 -150
-72 -9 -239 10 -369 41 -57 13 -105 23 -106 22 -4 -5 -75 -257 -75 -267 0 -6
32 -20 71 -31 142 -43 218 -53 399 -54 156 -1 184 2 259 23 150 43 249 132
289 260 26 85 23 258 -7 333 -56 144 -195 233 -423 272 -109 19 -180 49 -219
94 -28 32 -31 40 -27 84 8 80 56 118 173 139 80 14 220 1 331 -31 38 -11 71
-16 75 -12 6 7 69 235 69 251 0 13 -71 39 -164 62 -93 23 -281 32 -374 19z"/>
<path d="M4570 4828 c-106 -326 -217 -666 -246 -755 l-52 -163 167 0 166 0 46
153 45 152 229 0 229 0 46 -150 46 -150 168 -3 c133 -2 167 0 163 10 -4 12
-436 1335 -473 1451 l-16 47 -162 0 -162 0 -194 -592z m429 -103 c34 -110 61
-204 61 -208 0 -4 -61 -7 -135 -7 -74 0 -135 3 -135 8 0 6 18 68 101 336 21
67 34 95 39 85 5 -8 36 -104 69 -214z"/>
<path d="M5750 1034 c-16 -40 -12 -54 13 -54 17 0 28 10 40 34 18 38 14 46
-20 46 -16 0 -27 -8 -33 -26z"/>
<path d="M540 939 c-118 -36 -171 -172 -108 -280 48 -82 164 -118 246 -75 37
19 37 19 16 51 -15 23 -18 24 -44 10 -85 -44 -170 15 -170 117 0 50 19 82 60
103 37 19 73 19 110 0 29 -15 30 -14 45 15 15 29 15 30 -14 44 -40 21 -99 27
-141 15z"/>
<path d="M2320 938 c-129 -37 -178 -186 -98 -301 44 -62 165 -90 233 -54 39
20 81 65 94 100 15 39 14 111 -3 150 -17 43 -76 93 -123 106 -44 13 -56 13
-103 -1z m110 -73 c37 -19 60 -62 60 -110 0 -109 -125 -162 -201 -86 -97 98
19 259 141 196z"/>
<path d="M4854 936 c-41 -18 -64 -52 -64 -94 0 -44 42 -84 105 -102 47 -13 95
-44 95 -61 0 -19 -41 -49 -69 -49 -15 0 -45 11 -66 25 -35 25 -38 25 -56 9
-29 -26 -23 -41 24 -69 79 -46 189 -29 222 35 36 69 0 125 -104 162 -35 13
-69 30 -74 40 -27 42 56 65 114 31 27 -16 30 -16 45 -1 24 23 11 46 -38 68
-50 23 -91 25 -134 6z"/>
<path d="M6607 935 c-138 -49 -170 -241 -56 -328 160 -121 373 46 290 228 -22
50 -69 91 -119 105 -48 13 -68 12 -115 -5z m152 -101 c31 -33 33 -40 28 -87
-3 -41 -11 -56 -36 -79 -17 -15 -42 -30 -56 -34 -36 -9 -70 2 -106 34 -25 23
-33 38 -36 78 -5 44 -2 54 23 83 35 42 59 52 109 46 30 -3 48 -13 74 -41z"/>
<path d="M780 755 l0 -185 136 0 135 0 -3 33 -3 32 -97 3 -98 3 0 44 0 45 75
0 75 0 0 35 0 35 -76 0 -75 0 3 38 3 37 93 3 92 3 0 29 0 30 -130 0 -130 0 0
-185z"/>
<path d="M1110 755 l0 -185 35 0 34 0 3 131 3 132 90 -132 c89 -130 90 -132
125 -129 l35 3 0 180 0 180 -32 3 -33 3 0 -120 c0 -67 -3 -121 -7 -121 -5 1
-45 55 -91 120 -82 119 -83 120 -123 120 l-39 0 0 -185z"/>
<path d="M1500 910 c0 -29 1 -30 50 -30 l49 0 3 -152 3 -153 32 -3 32 -3 3
153 3 153 53 3 c50 3 52 4 52 33 l0 29 -140 0 -140 0 0 -30z"/>
<path d="M1850 754 l0 -185 33 3 c32 3 32 3 35 66 l3 62 37 0 c36 0 39 -2 70
-65 30 -62 34 -65 67 -65 19 0 35 5 35 10 0 6 -14 38 -30 71 l-31 60 26 30
c33 40 40 72 26 120 -19 63 -55 79 -173 79 l-98 0 0 -186z m190 106 c46 -46 9
-100 -70 -100 l-50 0 0 60 0 60 50 0 c37 0 55 -5 70 -20z"/>
<path d="M2790 809 c0 -150 11 -185 67 -220 43 -27 124 -29 171 -5 57 29 72
76 72 226 l0 130 -34 0 -34 0 -4 -136 c-3 -129 -4 -137 -27 -155 -33 -27 -86
-25 -116 6 -24 23 -25 29 -25 155 l0 130 -35 0 -35 0 0 -131z"/>
<path d="M3180 755 l0 -185 35 0 35 0 0 132 0 131 88 -129 c84 -123 90 -129
125 -132 l37 -3 0 185 0 186 -35 0 -34 0 -3 -122 -3 -123 -84 123 c-83 120
-85 122 -123 122 l-38 0 0 -185z"/>
<path d="M3590 755 l0 -186 33 3 32 3 0 180 0 180 -32 3 -33 3 0 -186z"/>
<path d="M3714 923 c4 -10 37 -94 73 -186 66 -166 67 -168 96 -165 28 3 32 11
93 163 86 213 84 205 41 205 l-35 0 -47 -130 c-27 -72 -51 -128 -54 -124 -3 3
-27 60 -52 127 l-46 122 -38 3 c-33 3 -37 1 -31 -15z"/>
<path d="M4110 755 l0 -185 136 0 135 0 -3 33 -3 32 -97 3 -98 3 0 44 0 45 76
0 75 0 -3 33 -3 32 -72 3 -73 3 0 39 0 40 95 0 95 0 0 30 0 30 -130 0 -130 0
0 -185z"/>
<path d="M4440 755 l0 -185 35 0 35 0 0 65 0 65 39 0 c39 0 41 -2 73 -62 31
-59 36 -63 71 -66 20 -2 37 -1 37 3 0 3 -15 36 -34 73 l-33 67 27 27 c51 50
44 129 -15 176 -24 19 -40 22 -131 22 l-104 0 0 -185z m194 109 c24 -23 20
-70 -6 -88 -13 -9 -43 -16 -70 -16 l-48 0 0 60 0 60 54 0 c36 0 60 -5 70 -16z"/>
<path d="M5130 755 l0 -185 35 0 35 0 0 185 0 185 -35 0 -35 0 0 -185z"/>
<path d="M5260 911 c0 -29 2 -30 53 -33 l52 -3 3 -153 3 -153 32 3 32 3 3 153
3 152 49 0 c49 0 50 1 50 30 l0 30 -140 0 -140 0 0 -29z"/>
<path d="M5655 764 c-38 -97 -72 -181 -74 -186 -2 -5 14 -8 35 -6 34 3 40 7
48 36 l9 32 81 0 82 0 13 -35 c11 -31 16 -35 48 -35 29 0 34 3 29 18 -4 9 -37
92 -73 185 -66 165 -67 167 -97 167 -31 0 -32 -2 -101 -176z m133 3 c12 -33
22 -61 22 -63 0 -2 -25 -4 -56 -4 -49 0 -55 2 -49 18 4 9 16 41 27 70 11 30
23 50 27 45 4 -4 17 -34 29 -66z"/>
<path d="M5990 755 l0 -185 35 0 35 0 0 65 0 65 38 0 c35 0 38 -3 71 -65 32
-60 38 -65 68 -65 18 0 33 5 33 10 0 6 -14 38 -30 71 l-31 60 31 35 c34 40 40
86 15 134 -24 47 -61 60 -170 60 l-95 0 0 -185z m194 103 c37 -53 3 -98 -74
-98 l-50 0 0 60 0 60 54 0 c45 0 58 -4 70 -22z"/>
<path d="M6340 755 l0 -185 35 0 35 0 0 185 0 185 -35 0 -35 0 0 -185z"/>
<path d="M1103 379 c-42 -12 -73 -53 -73 -96 0 -46 39 -85 110 -108 68 -22 80
-31 80 -61 0 -48 -67 -58 -125 -18 l-38 25 -25 -24 -24 -24 33 -26 c63 -47
141 -54 208 -18 24 13 51 66 51 100 0 34 -42 70 -114 99 -77 32 -97 51 -77 76
17 21 61 20 106 -1 33 -16 37 -16 52 -1 8 9 13 23 10 32 -14 37 -115 63 -174
45z"/>
<path d="M2596 375 c-76 -27 -120 -79 -132 -157 -21 -126 110 -242 235 -208
50 13 109 63 127 107 17 39 18 111 3 150 -33 88 -145 140 -233 108z m110 -71
c41 -20 64 -59 64 -109 0 -20 -7 -49 -15 -64 -15 -30 -69 -61 -105 -61 -56 0
-120 65 -120 123 0 40 26 85 63 107 39 24 68 25 113 4z"/>
<path d="M3578 380 c-124 -38 -179 -169 -118 -280 47 -85 162 -119 253 -76
l37 18 0 64 0 64 -30 0 c-28 0 -30 -2 -30 -40 0 -48 -24 -65 -84 -57 -69 10
-116 78 -102 150 14 73 107 118 174 84 28 -14 32 -13 46 2 9 10 16 23 16 29 0
29 -112 58 -162 42z"/>
<path d="M3958 380 c-124 -38 -179 -169 -118 -280 93 -167 353 -98 353 94 0
73 -42 140 -108 174 -31 15 -97 22 -127 12z m95 -74 c100 -41 91 -196 -13
-227 -48 -15 -85 -6 -121 30 -55 56 -44 150 23 191 39 23 66 25 111 6z"/>
<path d="M4345 383 c-65 -17 -101 -84 -73 -138 15 -31 40 -47 120 -75 67 -25
84 -53 48 -82 -31 -25 -71 -22 -115 8 -37 25 -38 25 -57 7 -24 -25 -16 -45 30
-70 53 -29 87 -35 134 -22 60 16 98 58 98 107 0 52 -33 85 -115 112 -75 25
-91 40 -75 69 14 28 78 29 112 1 25 -19 25 -19 47 4 20 22 21 23 3 39 -40 37
-105 53 -157 40z"/>
<path d="M6010 378 c-188 -54 -183 -317 7 -367 182 -49 309 175 179 317 -43
48 -122 69 -186 50z m137 -102 c27 -29 33 -44 33 -81 0 -37 -6 -52 -33 -81
-43 -48 -97 -56 -147 -22 -46 31 -62 63 -57 116 11 108 131 147 204 68z"/>
<path d="M1417 213 c-36 -92 -69 -176 -73 -185 -5 -15 0 -18 29 -18 32 0 37 4
47 35 l12 35 79 0 80 0 15 -35 c12 -30 19 -35 49 -35 l35 0 -17 42 c-131 331
-127 323 -159 326 -30 3 -30 3 -97 -165z m128 -6 l25 -67 -55 0 c-30 0 -55 2
-55 5 0 2 8 26 18 52 11 26 22 57 26 67 9 25 11 22 41 -57z"/>
<path d="M1745 368 c-3 -8 -4 -90 -3 -183 l3 -170 32 -3 32 -3 3 133 3 133 90
-133 c89 -130 91 -132 128 -132 l37 0 0 185 0 185 -35 0 -35 0 0 -120 c0 -66
-3 -120 -7 -120 -5 1 -44 54 -89 118 -76 110 -83 117 -117 120 -24 2 -39 -1
-42 -10z"/>
<path d="M2130 351 c0 -29 2 -30 53 -33 l52 -3 3 -153 3 -153 32 3 32 3 3 153
3 152 49 0 c49 0 50 1 50 30 l0 30 -140 0 -140 0 0 -29z"/>
<path d="M3121 203 c-39 -98 -71 -181 -71 -185 0 -5 15 -8 33 -8 29 0 35 5 46
35 l12 35 79 0 79 0 12 -35 c11 -31 17 -35 47 -35 42 0 44 -8 -42 205 -61 153
-65 160 -94 163 -29 3 -29 3 -101 -175z m127 15 c12 -35 22 -66 22 -70 0 -5
-23 -8 -51 -8 -35 0 -49 4 -47 13 13 49 43 127 48 127 3 0 16 -28 28 -62z"/>
<path d="M4580 350 c0 -29 1 -30 50 -30 l50 0 0 -155 0 -155 35 0 34 0 3 152
3 153 53 3 c50 3 52 4 52 33 l0 29 -140 0 -140 0 0 -30z"/>
<path d="M4924 367 c-2 -7 -3 -89 -2 -182 l3 -170 33 -3 32 -3 0 185 0 186
-30 0 c-17 0 -33 -6 -36 -13z"/>
<path d="M5080 195 l0 -185 35 0 35 0 0 132 0 132 91 -132 c86 -126 92 -132
125 -132 l34 0 0 185 0 185 -35 0 -34 0 -3 -122 -3 -122 -85 122 c-83 120 -85
122 -122 122 l-38 0 0 -185z"/>
<path d="M5490 195 l0 -185 35 0 35 0 0 80 0 80 85 0 85 0 0 -80 0 -80 35 0
35 0 0 185 0 185 -35 0 -35 0 0 -70 0 -70 -85 0 -85 0 0 70 0 70 -35 0 -35 0
0 -185z"/>
</g>
</svg>
